<?xml version="1.0" encoding="us-ascii" standalone="no"?><svg xmlns="http://www.w3.org/2000/svg" xmlns:xlink="http://www.w3.org/1999/xlink" contentStyleType="text/css" height="340px" preserveAspectRatio="none" style="width:810px;height:340px;background:#FFFFFF;" version="1.1" viewBox="0 0 810 340" width="810px" zoomAndPan="magnify"><defs/><g><line style="stroke:#333333;stroke-width:0.5;" x1="10" x2="10" y1="10" y2="309.625"/><line style="stroke:#333333;stroke-width:0.5;" x1="793" x2="793" y1="10" y2="309.625"/><rect fill="#EEEEEE" height="299.625" style="stroke:none;stroke-width:1.0;" width="50" x="238" y="10"/><rect fill="#EEEEEE" height="299.625" style="stroke:none;stroke-width:1.0;" width="50" x="388" y="10"/><line style="stroke:#333333;stroke-width:0.5;stroke-dasharray:3.0,5.0;" x1="238" x2="238" y1="10" y2="309.625"/><line style="stroke:#333333;stroke-width:0.5;stroke-dasharray:3.0,5.0;" x1="288" x2="288" y1="10" y2="309.625"/><line style="stroke:#333333;stroke-width:0.5;stroke-dasharray:3.0,5.0;" x1="338" x2="338" y1="10" y2="309.625"/><line style="stroke:#333333;stroke-width:0.5;stroke-dasharray:3.0,5.0;" x1="388" x2="388" y1="10" y2="309.625"/><line style="stroke:#333333;stroke-width:0.5;stroke-dasharray:3.0,5.0;" x1="438" x2="438" y1="10" y2="309.625"/><line style="stroke:#333333;stroke-width:0.5;stroke-dasharray:3.0,5.0;" x1="488" x2="488" y1="10" y2="309.625"/><line style="stroke:#333333;stroke-width:0.5;stroke-dasharray:3.0,5.0;" x1="538" x2="538" y1="10" y2="309.625"/><line style="stroke:#333333;stroke-width:0.5;stroke-dasharray:3.0,5.0;" x1="588" x2="588" y1="10" y2="309.625"/><line style="stroke:#333333;stroke-width:0.5;stroke-dasharray:3.0,5.0;" x1="638" x2="638" y1="10" y2="309.625"/><line style="stroke:#333333;stroke-width:0.5;stroke-dasharray:3.0,5.0;" x1="688" x2="688" y1="10" y2="309.625"/><line style="stroke:#333333;stroke-width:0.5;stroke-dasharray:3.0,5.0;" x1="738" x2="738" y1="10" y2="309.625"/><line style="stroke:#333333;stroke-width:0.5;stroke-dasharray:3.0,5.0;" x1="788" x2="788" y1="10" y2="309.625"/><line style="stroke:#333333;stroke-width:0.5;" x1="10" x2="793" y1="10" y2="10"/><text fill="#333333" font-family="sans-serif" font-size="14" font-weight="bold" lengthAdjust="spacing" textLength="107" x="15" y="24.5332">physical button</text><line style="stroke:#333333;stroke-width:0.5;" x1="10" x2="123" y1="28.6094" y2="28.6094"/><line style="stroke:#333333;stroke-width:0.5;" x1="123" x2="133" y1="28.6094" y2="10"/><text fill="#333333" font-family="sans-serif" font-size="12" lengthAdjust="spacing" textLength="19" x="169" y="74.6133">low</text><text fill="#333333" font-family="sans-serif" font-size="12" lengthAdjust="spacing" textLength="24" x="169" y="54.6133">high</text><line style="stroke:#006400;stroke-width:2.0;" x1="198" x2="238" y1="68.7031" y2="68.7031"/><line style="stroke:#006400;stroke-width:2.0;" x1="198" x2="238" y1="68.7031" y2="68.7031"/><rect fill="#E2E2F0" height="20" style="stroke:#006400;stroke-width:2.0;" width="50" x="238" y="48.7031"/><line style="stroke:#006400;stroke-width:2.0;" x1="238" x2="238" y1="48.7031" y2="68.7031"/><line style="stroke:#006400;stroke-width:2.0;" x1="243" x2="243" y1="48.7031" y2="68.7031"/><line style="stroke:#006400;stroke-width:2.0;" x1="248" x2="248" y1="48.7031" y2="68.7031"/><line style="stroke:#006400;stroke-width:2.0;" x1="253" x2="253" y1="48.7031" y2="68.7031"/><line style="stroke:#006400;stroke-width:2.0;" x1="258" x2="258" y1="48.7031" y2="68.7031"/><line style="stroke:#006400;stroke-width:2.0;" x1="263" x2="263" y1="48.7031" y2="68.7031"/><line style="stroke:#006400;stroke-width:2.0;" x1="268" x2="268" y1="48.7031" y2="68.7031"/><line style="stroke:#006400;stroke-width:2.0;" x1="273" x2="273" y1="48.7031" y2="68.7031"/><line style="stroke:#006400;stroke-width:2.0;" x1="278" x2="278" y1="48.7031" y2="68.7031"/><line style="stroke:#006400;stroke-width:2.0;" x1="283" x2="283" y1="48.7031" y2="68.7031"/><line style="stroke:#006400;stroke-width:2.0;" x1="238" x2="288" y1="68.7031" y2="68.7031"/><line style="stroke:#006400;stroke-width:2.0;" x1="238" x2="288" y1="48.7031" y2="48.7031"/><line style="stroke:#006400;stroke-width:2.0;" x1="288" x2="388" y1="48.7031" y2="48.7031"/><rect fill="#E2E2F0" height="20" style="stroke:#006400;stroke-width:2.0;" width="50" x="388" y="48.7031"/><line style="stroke:#006400;stroke-width:2.0;" x1="388" x2="388" y1="48.7031" y2="68.7031"/><line style="stroke:#006400;stroke-width:2.0;" x1="393" x2="393" y1="48.7031" y2="68.7031"/><line style="stroke:#006400;stroke-width:2.0;" x1="398" x2="398" y1="48.7031" y2="68.7031"/><line style="stroke:#006400;stroke-width:2.0;" x1="403" x2="403" y1="48.7031" y2="68.7031"/><line style="stroke:#006400;stroke-width:2.0;" x1="408" x2="408" y1="48.7031" y2="68.7031"/><line style="stroke:#006400;stroke-width:2.0;" x1="413" x2="413" y1="48.7031" y2="68.7031"/><line style="stroke:#006400;stroke-width:2.0;" x1="418" x2="418" y1="48.7031" y2="68.7031"/><line style="stroke:#006400;stroke-width:2.0;" x1="423" x2="423" y1="48.7031" y2="68.7031"/><line style="stroke:#006400;stroke-width:2.0;" x1="428" x2="428" y1="48.7031" y2="68.7031"/><line style="stroke:#006400;stroke-width:2.0;" x1="433" x2="433" y1="48.7031" y2="68.7031"/><line style="stroke:#006400;stroke-width:2.0;" x1="388" x2="438" y1="48.7031" y2="48.7031"/><line style="stroke:#006400;stroke-width:2.0;" x1="388" x2="438" y1="68.7031" y2="68.7031"/><line style="stroke:#006400;stroke-width:2.0;" x1="438" x2="788" y1="68.7031" y2="68.7031"/><line style="stroke:#006400;stroke-width:2.0;" x1="238" x2="238" y1="68.7031" y2="68.7031"/><line style="stroke:#006400;stroke-width:2.0;" x1="288" x2="288" y1="48.7031" y2="68.7031"/><line style="stroke:#006400;stroke-width:2.0;" x1="388" x2="388" y1="48.7031" y2="68.7031"/><line style="stroke:#006400;stroke-width:2.0;" x1="438" x2="438" y1="48.7031" y2="68.7031"/><line style="stroke:#333333;stroke-width:0.5;" x1="10" x2="793" y1="80.7031" y2="80.7031"/><text fill="#333333" font-family="sans-serif" font-size="14" font-weight="bold" lengthAdjust="spacing" textLength="96" x="15" y="95.2363">logical button</text><line style="stroke:#333333;stroke-width:0.5;" x1="10" x2="112" y1="99.3125" y2="99.3125"/><line style="stroke:#333333;stroke-width:0.5;" x1="112" x2="122" y1="99.3125" y2="80.7031"/><text fill="#333333" font-family="sans-serif" font-size="12" lengthAdjust="spacing" textLength="64" x="129" y="150.3164">RELEASED</text><text fill="#333333" font-family="sans-serif" font-size="12" lengthAdjust="spacing" textLength="51" x="129" y="130.3164">PUSHED</text><line style="stroke:#006400;stroke-width:2.0;" x1="198" x2="288" y1="144.4063" y2="144.4063"/><line style="stroke:#006400;stroke-width:2.0;" x1="288" x2="438" y1="124.4063" y2="124.4063"/><line style="stroke:#006400;stroke-width:2.0;" x1="438" x2="788" y1="144.4063" y2="144.4063"/><line style="stroke:#006400;stroke-width:2.0;" x1="288" x2="288" y1="124.4063" y2="144.4063"/><line style="stroke:#006400;stroke-width:2.0;" x1="438" x2="438" y1="124.4063" y2="144.4063"/><line style="stroke:#8B0000;stroke-width:1.5;" x1="290.5" x2="485.5" y1="119.4063" y2="119.4063"/><polygon fill="#8B0000" points="298.5,123.4063,298.5,115.4063,290.5,119.4063" style="stroke:#8B0000;stroke-width:2.0;"/><polygon fill="#8B0000" points="477.5,123.4063,477.5,115.4063,485.5,119.4063" style="stroke:#8B0000;stroke-width:2.0;"/><text fill="#8B0000" font-family="sans-serif" font-size="12" lengthAdjust="spacing" textLength="170" x="303" y="111.7695">{LONG_RELEASE_DELAY_us}</text><line style="stroke:#8B0000;stroke-width:1.5;" x1="440.5" x2="685.5" y1="139.4063" y2="139.4063"/><polygon fill="#8B0000" points="448.5,143.4063,448.5,135.4063,440.5,139.4063" style="stroke:#8B0000;stroke-width:2.0;"/><polygon fill="#8B0000" points="677.5,143.4063,677.5,135.4063,685.5,139.4063" style="stroke:#8B0000;stroke-width:2.0;"/><text fill="#8B0000" font-family="sans-serif" font-size="12" lengthAdjust="spacing" textLength="133" x="496.5" y="131.7695">{TIME_OUT_DELAY_us}</text><line style="stroke:#333333;stroke-width:0.5;" x1="10" x2="793" y1="156.4063" y2="156.4063"/><text fill="#333333" font-family="sans-serif" font-size="14" font-weight="bold" lengthAdjust="spacing" textLength="83" x="15" y="170.9395">ButtonState</text><line style="stroke:#333333;stroke-width:0.5;" x1="10" x2="99" y1="175.0156" y2="175.0156"/><line style="stroke:#333333;stroke-width:0.5;" x1="99" x2="109" y1="175.0156" y2="156.4063"/><polygon fill="#E2E2F0" points="189,180.0156,326,180.0156,338,192.0156,326,204.0156,189,204.0156" style="stroke:#E2E2F0;stroke-width:1.5;"/><path d="M189,180.0156 L326,180.0156 L338,192.0156 L326,204.0156 L189,204.0156 " fill="#E2E2F0" style="stroke:#006400;stroke-width:1.5;"/><text fill="#333333" font-family="sans-serif" font-size="12" font-weight="bold" lengthAdjust="spacing" textLength="25" x="201" y="196.9258">IDLE</text><polygon fill="#E2E2F0" points="350,180.0156,476,180.0156,488,192.0156,476,204.0156,350,204.0156,338,192.0156" style="stroke:#006400;stroke-width:1.5;"/><polygon fill="#E2E2F0" points="500,180.0156,726,180.0156,738,192.0156,726,204.0156,500,204.0156,488,192.0156" style="stroke:#006400;stroke-width:1.5;"/><polygon fill="#E2E2F0" points="750,180.0156,788,180.0156,788,204.0156,750,204.0156,738,192.0156" style="stroke:#E2E2F0;stroke-width:1.5;"/><path d="M788,180.0156 L750,180.0156 L738,192.0156 L750,204.0156 L788,204.0156 " fill="#E2E2F0" style="stroke:#006400;stroke-width:1.5;"/><text fill="#333333" font-family="sans-serif" font-size="12" font-weight="bold" lengthAdjust="spacing" textLength="35" x="395.5" y="196.9258">Active</text><text fill="#333333" font-family="sans-serif" font-size="12" font-weight="bold" lengthAdjust="spacing" textLength="105" x="560.5" y="196.9258">Time_out_pending</text><text fill="#333333" font-family="sans-serif" font-size="12" font-weight="bold" lengthAdjust="spacing" textLength="25" x="750" y="196.9258">IDLE</text><line style="stroke:#333333;stroke-width:0.5;" x1="10" x2="793" y1="214.0156" y2="214.0156"/><text fill="#333333" font-family="sans-serif" font-size="14" font-weight="bold" lengthAdjust="spacing" textLength="41" x="15" y="228.5488">event</text><line style="stroke:#333333;stroke-width:0.5;" x1="10" x2="57" y1="232.625" y2="232.625"/><line style="stroke:#333333;stroke-width:0.5;" x1="57" x2="67" y1="232.625" y2="214.0156"/><text fill="#333333" font-family="sans-serif" font-size="12" lengthAdjust="spacing" textLength="35" x="15" y="303.5352">NOOP</text><text fill="#333333" font-family="sans-serif" font-size="12" lengthAdjust="spacing" textLength="34" x="15" y="283.5352">PUSH</text><text fill="#333333" font-family="sans-serif" font-size="12" lengthAdjust="spacing" textLength="183" x="15" y="263.5352">RELEASE_AFTER_SHORT_TIME</text><text fill="#333333" font-family="sans-serif" font-size="12" lengthAdjust="spacing" textLength="59" x="15" y="243.5352">TIME_OUT</text><line style="stroke:#006400;stroke-width:2.0;" x1="198" x2="288" y1="297.625" y2="297.625"/><line style="stroke:#006400;stroke-width:2.0;" x1="288" x2="338" y1="277.625" y2="277.625"/><line style="stroke:#006400;stroke-width:2.0;" x1="338" x2="438" y1="297.625" y2="297.625"/><line style="stroke:#006400;stroke-width:2.0;" x1="438" x2="488" y1="257.625" y2="257.625"/><line style="stroke:#006400;stroke-width:2.0;" x1="488" x2="688" y1="297.625" y2="297.625"/><line style="stroke:#006400;stroke-width:2.0;" x1="688" x2="738" y1="237.625" y2="237.625"/><line style="stroke:#006400;stroke-width:2.0;" x1="738" x2="788" y1="297.625" y2="297.625"/><line style="stroke:#006400;stroke-width:2.0;" x1="288" x2="288" y1="277.625" y2="297.625"/><line style="stroke:#006400;stroke-width:2.0;" x1="338" x2="338" y1="277.625" y2="297.625"/><line style="stroke:#006400;stroke-width:2.0;" x1="438" x2="438" y1="257.625" y2="297.625"/><line style="stroke:#006400;stroke-width:2.0;" x1="488" x2="488" y1="257.625" y2="297.625"/><line style="stroke:#006400;stroke-width:2.0;" x1="688" x2="688" y1="237.625" y2="297.625"/><line style="stroke:#006400;stroke-width:2.0;" x1="738" x2="738" y1="237.625" y2="297.625"/><line style="stroke:#333333;stroke-width:2.0;" x1="238" x2="238" y1="309.625" y2="314.625"/><line style="stroke:#333333;stroke-width:2.0;" x1="288" x2="288" y1="309.625" y2="314.625"/><line style="stroke:#333333;stroke-width:2.0;" x1="338" x2="338" y1="309.625" y2="314.625"/><line style="stroke:#333333;stroke-width:2.0;" x1="388" x2="388" y1="309.625" y2="314.625"/><line style="stroke:#333333;stroke-width:2.0;" x1="438" x2="438" y1="309.625" y2="314.625"/><line style="stroke:#333333;stroke-width:2.0;" x1="488" x2="488" y1="309.625" y2="314.625"/><line style="stroke:#333333;stroke-width:2.0;" x1="538" x2="538" y1="309.625" y2="314.625"/><line style="stroke:#333333;stroke-width:2.0;" x1="588" x2="588" y1="309.625" y2="314.625"/><line style="stroke:#333333;stroke-width:2.0;" x1="638" x2="638" y1="309.625" y2="314.625"/><line style="stroke:#333333;stroke-width:2.0;" x1="688" x2="688" y1="309.625" y2="314.625"/><line style="stroke:#333333;stroke-width:2.0;" x1="738" x2="738" y1="309.625" y2="314.625"/><line style="stroke:#333333;stroke-width:2.0;" x1="788" x2="788" y1="309.625" y2="314.625"/><line style="stroke:#333333;stroke-width:2.0;" x1="238" x2="788" y1="309.625" y2="309.625"/><text fill="#333333" font-family="sans-serif" font-size="11" lengthAdjust="spacing" textLength="6" x="235" y="327.0439">0</text><text fill="#333333" font-family="sans-serif" font-size="11" lengthAdjust="spacing" textLength="6" x="285" y="327.0439">5</text><text fill="#333333" font-family="sans-serif" font-size="11" lengthAdjust="spacing" textLength="12" x="332" y="327.0439">10</text><text fill="#333333" font-family="sans-serif" font-size="11" lengthAdjust="spacing" textLength="12" x="382" y="327.0439">15</text><text fill="#333333" font-family="sans-serif" font-size="11" lengthAdjust="spacing" textLength="12" x="432" y="327.0439">20</text><text fill="#333333" font-family="sans-serif" font-size="11" lengthAdjust="spacing" textLength="12" x="482" y="327.0439">25</text><text fill="#333333" font-family="sans-serif" font-size="11" lengthAdjust="spacing" textLength="12" x="682" y="327.0439">45</text><text fill="#333333" font-family="sans-serif" font-size="11" lengthAdjust="spacing" textLength="12" x="732" y="327.0439">50</text><line style="stroke:#333333;stroke-width:2.0;stroke-dasharray:4.0,4.0;" x1="238" x2="238" y1="10" y2="309.625"/><line style="stroke:#333333;stroke-width:2.0;stroke-dasharray:4.0,4.0;" x1="288" x2="288" y1="10" y2="309.625"/><text fill="#000000" font-family="sans-serif" font-size="12" lengthAdjust="spacing" textLength="69" x="241" y="24.457">DEBOUNCE</text><line style="stroke:#333333;stroke-width:2.0;stroke-dasharray:4.0,4.0;" x1="388" x2="388" y1="10" y2="309.625"/><line style="stroke:#333333;stroke-width:2.0;stroke-dasharray:4.0,4.0;" x1="438" x2="438" y1="10" y2="309.625"/><text fill="#000000" font-family="sans-serif" font-size="12" lengthAdjust="spacing" textLength="69" x="391" y="24.457">DEBOUNCE</text><!--SRC=[NL5RQuCm57u_l-BGrtLWotmPOsXdjXPSBLuUzXIi2pNWJ6bYon3_-qoCpkr1-8xVvLno4ST6AboSos_9Yxp2OwEKg1UOIvGtheeIBbPIYTD_nG2X47N19SEDAHELApQws9NL2eOav18hSOF1fQkOXCHFI00pf_w_2q82ngghVHGT04f-Agl-K-YW4kZY8mPa4sNx5pBZLgucrywS1SzkukYqjXzXgGqTkBhM45O6jXelUxw3jJDE2vxTqdFnwVuPlJkJteRH_etQ1MX0Gl-3Dh83hsUjJ8_OfhjtGgCidKbChqEMRFl5XpxJ7S0R3ZP9OELC9_YZfVvhIcAQRACufRe9hDr9-M3Ws1hStuo-m_oLXdI_KFpAR43AlnWLZQ9dLd_o-cJTvab-0000]--></g></svg>