<?xml version="1.0" encoding="us-ascii" standalone="no"?><svg xmlns="http://www.w3.org/2000/svg" xmlns:xlink="http://www.w3.org/1999/xlink" contentStyleType="text/css" height="380px" preserveAspectRatio="none" style="width:1002px;height:380px;background:#FFFFFF;" version="1.1" viewBox="0 0 1002 380" width="1002px" zoomAndPan="magnify"><defs/><g><line style="stroke:#333333;stroke-width:0.5;" x1="10" x2="10" y1="10" y2="349.7188"/><line style="stroke:#333333;stroke-width:0.5;" x1="985" x2="985" y1="10" y2="349.7188"/><rect fill="#EEEEEE" height="339.7188" style="stroke:none;stroke-width:1.0;" width="50" x="230" y="10"/><rect fill="#EEEEEE" height="339.7188" style="stroke:none;stroke-width:1.0;" width="50" x="580" y="10"/><line style="stroke:#333333;stroke-width:0.5;stroke-dasharray:3.0,5.0;" x1="230" x2="230" y1="10" y2="349.7188"/><line style="stroke:#333333;stroke-width:0.5;stroke-dasharray:3.0,5.0;" x1="280" x2="280" y1="10" y2="349.7188"/><line style="stroke:#333333;stroke-width:0.5;stroke-dasharray:3.0,5.0;" x1="330" x2="330" y1="10" y2="349.7188"/><line style="stroke:#333333;stroke-width:0.5;stroke-dasharray:3.0,5.0;" x1="380" x2="380" y1="10" y2="349.7188"/><line style="stroke:#333333;stroke-width:0.5;stroke-dasharray:3.0,5.0;" x1="430" x2="430" y1="10" y2="349.7188"/><line style="stroke:#333333;stroke-width:0.5;stroke-dasharray:3.0,5.0;" x1="480" x2="480" y1="10" y2="349.7188"/><line style="stroke:#333333;stroke-width:0.5;stroke-dasharray:3.0,5.0;" x1="530" x2="530" y1="10" y2="349.7188"/><line style="stroke:#333333;stroke-width:0.5;stroke-dasharray:3.0,5.0;" x1="580" x2="580" y1="10" y2="349.7188"/><line style="stroke:#333333;stroke-width:0.5;stroke-dasharray:3.0,5.0;" x1="630" x2="630" y1="10" y2="349.7188"/><line style="stroke:#333333;stroke-width:0.5;stroke-dasharray:3.0,5.0;" x1="680" x2="680" y1="10" y2="349.7188"/><line style="stroke:#333333;stroke-width:0.5;stroke-dasharray:3.0,5.0;" x1="730" x2="730" y1="10" y2="349.7188"/><line style="stroke:#333333;stroke-width:0.5;stroke-dasharray:3.0,5.0;" x1="780" x2="780" y1="10" y2="349.7188"/><line style="stroke:#333333;stroke-width:0.5;stroke-dasharray:3.0,5.0;" x1="830" x2="830" y1="10" y2="349.7188"/><line style="stroke:#333333;stroke-width:0.5;stroke-dasharray:3.0,5.0;" x1="880" x2="880" y1="10" y2="349.7188"/><line style="stroke:#333333;stroke-width:0.5;stroke-dasharray:3.0,5.0;" x1="930" x2="930" y1="10" y2="349.7188"/><line style="stroke:#333333;stroke-width:0.5;stroke-dasharray:3.0,5.0;" x1="980" x2="980" y1="10" y2="349.7188"/><line style="stroke:#333333;stroke-width:0.5;" x1="10" x2="985" y1="10" y2="10"/><text fill="#333333" font-family="sans-serif" font-size="14" font-weight="bold" lengthAdjust="spacing" textLength="107" x="15" y="24.5332">physical button</text><line style="stroke:#333333;stroke-width:0.5;" x1="10" x2="123" y1="28.6094" y2="28.6094"/><line style="stroke:#333333;stroke-width:0.5;" x1="123" x2="133" y1="28.6094" y2="10"/><text fill="#333333" font-family="sans-serif" font-size="12" lengthAdjust="spacing" textLength="19" x="161" y="74.6133">low</text><text fill="#333333" font-family="sans-serif" font-size="12" lengthAdjust="spacing" textLength="24" x="161" y="54.6133">high</text><line style="stroke:#006400;stroke-width:2.0;" x1="190" x2="230" y1="68.7031" y2="68.7031"/><line style="stroke:#006400;stroke-width:2.0;" x1="190" x2="230" y1="68.7031" y2="68.7031"/><rect fill="#E2E2F0" height="20" style="stroke:#006400;stroke-width:2.0;" width="50" x="230" y="48.7031"/><line style="stroke:#006400;stroke-width:2.0;" x1="230" x2="230" y1="48.7031" y2="68.7031"/><line style="stroke:#006400;stroke-width:2.0;" x1="235" x2="235" y1="48.7031" y2="68.7031"/><line style="stroke:#006400;stroke-width:2.0;" x1="240" x2="240" y1="48.7031" y2="68.7031"/><line style="stroke:#006400;stroke-width:2.0;" x1="245" x2="245" y1="48.7031" y2="68.7031"/><line style="stroke:#006400;stroke-width:2.0;" x1="250" x2="250" y1="48.7031" y2="68.7031"/><line style="stroke:#006400;stroke-width:2.0;" x1="255" x2="255" y1="48.7031" y2="68.7031"/><line style="stroke:#006400;stroke-width:2.0;" x1="260" x2="260" y1="48.7031" y2="68.7031"/><line style="stroke:#006400;stroke-width:2.0;" x1="265" x2="265" y1="48.7031" y2="68.7031"/><line style="stroke:#006400;stroke-width:2.0;" x1="270" x2="270" y1="48.7031" y2="68.7031"/><line style="stroke:#006400;stroke-width:2.0;" x1="275" x2="275" y1="48.7031" y2="68.7031"/><line style="stroke:#006400;stroke-width:2.0;" x1="230" x2="280" y1="68.7031" y2="68.7031"/><line style="stroke:#006400;stroke-width:2.0;" x1="230" x2="280" y1="48.7031" y2="48.7031"/><line style="stroke:#006400;stroke-width:2.0;" x1="280" x2="580" y1="48.7031" y2="48.7031"/><rect fill="#E2E2F0" height="20" style="stroke:#006400;stroke-width:2.0;" width="50" x="580" y="48.7031"/><line style="stroke:#006400;stroke-width:2.0;" x1="580" x2="580" y1="48.7031" y2="68.7031"/><line style="stroke:#006400;stroke-width:2.0;" x1="585" x2="585" y1="48.7031" y2="68.7031"/><line style="stroke:#006400;stroke-width:2.0;" x1="590" x2="590" y1="48.7031" y2="68.7031"/><line style="stroke:#006400;stroke-width:2.0;" x1="595" x2="595" y1="48.7031" y2="68.7031"/><line style="stroke:#006400;stroke-width:2.0;" x1="600" x2="600" y1="48.7031" y2="68.7031"/><line style="stroke:#006400;stroke-width:2.0;" x1="605" x2="605" y1="48.7031" y2="68.7031"/><line style="stroke:#006400;stroke-width:2.0;" x1="610" x2="610" y1="48.7031" y2="68.7031"/><line style="stroke:#006400;stroke-width:2.0;" x1="615" x2="615" y1="48.7031" y2="68.7031"/><line style="stroke:#006400;stroke-width:2.0;" x1="620" x2="620" y1="48.7031" y2="68.7031"/><line style="stroke:#006400;stroke-width:2.0;" x1="625" x2="625" y1="48.7031" y2="68.7031"/><line style="stroke:#006400;stroke-width:2.0;" x1="580" x2="630" y1="48.7031" y2="48.7031"/><line style="stroke:#006400;stroke-width:2.0;" x1="580" x2="630" y1="68.7031" y2="68.7031"/><line style="stroke:#006400;stroke-width:2.0;" x1="630" x2="980" y1="68.7031" y2="68.7031"/><line style="stroke:#006400;stroke-width:2.0;" x1="230" x2="230" y1="68.7031" y2="68.7031"/><line style="stroke:#006400;stroke-width:2.0;" x1="280" x2="280" y1="48.7031" y2="68.7031"/><line style="stroke:#006400;stroke-width:2.0;" x1="580" x2="580" y1="48.7031" y2="68.7031"/><line style="stroke:#006400;stroke-width:2.0;" x1="630" x2="630" y1="48.7031" y2="68.7031"/><line style="stroke:#333333;stroke-width:0.5;" x1="10" x2="985" y1="80.7031" y2="80.7031"/><text fill="#333333" font-family="sans-serif" font-size="14" font-weight="bold" lengthAdjust="spacing" textLength="96" x="15" y="95.2363">logical button</text><line style="stroke:#333333;stroke-width:0.5;" x1="10" x2="112" y1="99.3125" y2="99.3125"/><line style="stroke:#333333;stroke-width:0.5;" x1="112" x2="122" y1="99.3125" y2="80.7031"/><text fill="#333333" font-family="sans-serif" font-size="12" lengthAdjust="spacing" textLength="64" x="121" y="150.3164">RELEASED</text><text fill="#333333" font-family="sans-serif" font-size="12" lengthAdjust="spacing" textLength="58" x="121" y="130.3164">PRESSED</text><line style="stroke:#006400;stroke-width:2.0;" x1="190" x2="280" y1="144.4063" y2="144.4063"/><line style="stroke:#006400;stroke-width:2.0;" x1="280" x2="630" y1="124.4063" y2="124.4063"/><line style="stroke:#006400;stroke-width:2.0;" x1="630" x2="980" y1="144.4063" y2="144.4063"/><line style="stroke:#006400;stroke-width:2.0;" x1="280" x2="280" y1="124.4063" y2="144.4063"/><line style="stroke:#006400;stroke-width:2.0;" x1="630" x2="630" y1="124.4063" y2="144.4063"/><line style="stroke:#8B0000;stroke-width:1.5;" x1="282.5" x2="477.5" y1="119.4063" y2="119.4063"/><polygon fill="#8B0000" points="290.5,123.4063,290.5,115.4063,282.5,119.4063" style="stroke:#8B0000;stroke-width:2.0;"/><polygon fill="#8B0000" points="469.5,123.4063,469.5,115.4063,477.5,119.4063" style="stroke:#8B0000;stroke-width:2.0;"/><text fill="#8B0000" font-family="sans-serif" font-size="12" lengthAdjust="spacing" textLength="170" x="295" y="111.7695">{LONG_RELEASE_DELAY_us}</text><line style="stroke:#8B0000;stroke-width:1.5;" x1="632.5" x2="877.5" y1="139.4063" y2="139.4063"/><polygon fill="#8B0000" points="640.5,143.4063,640.5,135.4063,632.5,139.4063" style="stroke:#8B0000;stroke-width:2.0;"/><polygon fill="#8B0000" points="869.5,143.4063,869.5,135.4063,877.5,139.4063" style="stroke:#8B0000;stroke-width:2.0;"/><text fill="#8B0000" font-family="sans-serif" font-size="12" lengthAdjust="spacing" textLength="133" x="688.5" y="131.7695">{TIME_OUT_DELAY_us}</text><line style="stroke:#333333;stroke-width:0.5;" x1="10" x2="985" y1="156.4063" y2="156.4063"/><text fill="#333333" font-family="sans-serif" font-size="14" font-weight="bold" lengthAdjust="spacing" textLength="83" x="15" y="170.9395">ButtonState</text><line style="stroke:#333333;stroke-width:0.5;" x1="10" x2="99" y1="175.0156" y2="175.0156"/><line style="stroke:#333333;stroke-width:0.5;" x1="99" x2="109" y1="175.0156" y2="156.4063"/><polygon fill="#E2E2F0" points="181,200.1094,268,200.1094,280,212.1094,268,224.1094,181,224.1094" style="stroke:#E2E2F0;stroke-width:1.5;"/><path d="M181,200.1094 L268,200.1094 L280,212.1094 L268,224.1094 L181,224.1094 " fill="#E2E2F0" style="stroke:#006400;stroke-width:1.5;"/><text fill="#333333" font-family="sans-serif" font-size="12" font-weight="bold" lengthAdjust="spacing" textLength="25" x="193" y="217.0195">IDLE</text><polygon fill="#E2E2F0" points="292,200.1094,518,200.1094,530,212.1094,518,224.1094,292,224.1094,280,212.1094" style="stroke:#006400;stroke-width:1.5;"/><polygon fill="#E2E2F0" points="542,200.1094,618,200.1094,630,212.1094,618,224.1094,542,224.1094,530,212.1094" style="stroke:#006400;stroke-width:1.5;"/><polygon fill="#E2E2F0" points="642,200.1094,868,200.1094,880,212.1094,868,224.1094,642,224.1094,630,212.1094" style="stroke:#006400;stroke-width:1.5;"/><polygon fill="#E2E2F0" points="892,200.1094,980,200.1094,980,224.1094,892,224.1094,880,212.1094" style="stroke:#E2E2F0;stroke-width:1.5;"/><path d="M980,200.1094 L892,200.1094 L880,212.1094 L892,224.1094 L980,224.1094 " fill="#E2E2F0" style="stroke:#006400;stroke-width:1.5;"/><text fill="#333333" font-family="sans-serif" font-size="12" font-weight="bold" lengthAdjust="spacing" textLength="41" x="384.5" y="217.0195">ACTIVE</text><text fill="#333333" font-family="sans-serif" font-size="12" font-weight="bold" lengthAdjust="spacing" textLength="109" x="525.5" y="217.0195">RELEASE_PENDING</text><text fill="#333333" font-family="sans-serif" font-size="12" font-weight="bold" lengthAdjust="spacing" textLength="115" x="697.5" y="217.0195">TIME_OUT_PENDING</text><text fill="#333333" font-family="sans-serif" font-size="12" font-weight="bold" lengthAdjust="spacing" textLength="25" x="892" y="217.0195">IDLE</text><line style="stroke:#8B0000;stroke-width:1.5;" x1="281" x2="529" y1="190.0625" y2="190.0625"/><polygon fill="#8B0000" points="289,194.0625,289,186.0625,281,190.0625" style="stroke:#8B0000;stroke-width:1.0;"/><polygon fill="#8B0000" points="521,194.0625,521,186.0625,529,190.0625" style="stroke:#8B0000;stroke-width:1.0;"/><text fill="#8B0000" font-family="sans-serif" font-size="12" lengthAdjust="spacing" textLength="149" x="330.5" y="182.4258">{LONG_PUSH_DELAY_us}</text><line style="stroke:#333333;stroke-width:0.5;" x1="10" x2="985" y1="234.1094" y2="234.1094"/><text fill="#333333" font-family="sans-serif" font-size="14" font-weight="bold" lengthAdjust="spacing" textLength="41" x="15" y="248.6426">event</text><line style="stroke:#333333;stroke-width:0.5;" x1="10" x2="57" y1="252.7188" y2="252.7188"/><line style="stroke:#333333;stroke-width:0.5;" x1="57" x2="67" y1="252.7188" y2="234.1094"/><text fill="#333333" font-family="sans-serif" font-size="12" lengthAdjust="spacing" textLength="35" x="15" y="343.6289">NONE</text><text fill="#333333" font-family="sans-serif" font-size="12" lengthAdjust="spacing" textLength="34" x="15" y="323.6289">PUSH</text><text fill="#333333" font-family="sans-serif" font-size="12" lengthAdjust="spacing" textLength="75" x="15" y="303.6289">LONG_PUSH</text><text fill="#333333" font-family="sans-serif" font-size="12" lengthAdjust="spacing" textLength="175" x="15" y="283.6289">RELEASE_AFTER_LONG_TIME</text><text fill="#333333" font-family="sans-serif" font-size="12" lengthAdjust="spacing" textLength="59" x="15" y="263.6289">TIME_OUT</text><line style="stroke:#006400;stroke-width:2.0;" x1="190" x2="280" y1="337.7188" y2="337.7188"/><line style="stroke:#006400;stroke-width:2.0;" x1="280" x2="330" y1="317.7188" y2="317.7188"/><line style="stroke:#006400;stroke-width:2.0;" x1="330" x2="530" y1="337.7188" y2="337.7188"/><line style="stroke:#006400;stroke-width:2.0;" x1="530" x2="580" y1="297.7188" y2="297.7188"/><line style="stroke:#006400;stroke-width:2.0;" x1="580" x2="630" y1="337.7188" y2="337.7188"/><line style="stroke:#006400;stroke-width:2.0;" x1="630" x2="680" y1="277.7188" y2="277.7188"/><line style="stroke:#006400;stroke-width:2.0;" x1="680" x2="880" y1="337.7188" y2="337.7188"/><line style="stroke:#006400;stroke-width:2.0;" x1="880" x2="930" y1="257.7188" y2="257.7188"/><line style="stroke:#006400;stroke-width:2.0;" x1="930" x2="980" y1="337.7188" y2="337.7188"/><line style="stroke:#006400;stroke-width:2.0;" x1="280" x2="280" y1="317.7188" y2="337.7188"/><line style="stroke:#006400;stroke-width:2.0;" x1="330" x2="330" y1="317.7188" y2="337.7188"/><line style="stroke:#006400;stroke-width:2.0;" x1="530" x2="530" y1="297.7188" y2="337.7188"/><line style="stroke:#006400;stroke-width:2.0;" x1="580" x2="580" y1="297.7188" y2="337.7188"/><line style="stroke:#006400;stroke-width:2.0;" x1="630" x2="630" y1="277.7188" y2="337.7188"/><line style="stroke:#006400;stroke-width:2.0;" x1="680" x2="680" y1="277.7188" y2="337.7188"/><line style="stroke:#006400;stroke-width:2.0;" x1="880" x2="880" y1="257.7188" y2="337.7188"/><line style="stroke:#006400;stroke-width:2.0;" x1="930" x2="930" y1="257.7188" y2="337.7188"/><line style="stroke:#333333;stroke-width:2.0;" x1="230" x2="230" y1="349.7188" y2="354.7188"/><line style="stroke:#333333;stroke-width:2.0;" x1="280" x2="280" y1="349.7188" y2="354.7188"/><line style="stroke:#333333;stroke-width:2.0;" x1="330" x2="330" y1="349.7188" y2="354.7188"/><line style="stroke:#333333;stroke-width:2.0;" x1="380" x2="380" y1="349.7188" y2="354.7188"/><line style="stroke:#333333;stroke-width:2.0;" x1="430" x2="430" y1="349.7188" y2="354.7188"/><line style="stroke:#333333;stroke-width:2.0;" x1="480" x2="480" y1="349.7188" y2="354.7188"/><line style="stroke:#333333;stroke-width:2.0;" x1="530" x2="530" y1="349.7188" y2="354.7188"/><line style="stroke:#333333;stroke-width:2.0;" x1="580" x2="580" y1="349.7188" y2="354.7188"/><line style="stroke:#333333;stroke-width:2.0;" x1="630" x2="630" y1="349.7188" y2="354.7188"/><line style="stroke:#333333;stroke-width:2.0;" x1="680" x2="680" y1="349.7188" y2="354.7188"/><line style="stroke:#333333;stroke-width:2.0;" x1="730" x2="730" y1="349.7188" y2="354.7188"/><line style="stroke:#333333;stroke-width:2.0;" x1="780" x2="780" y1="349.7188" y2="354.7188"/><line style="stroke:#333333;stroke-width:2.0;" x1="830" x2="830" y1="349.7188" y2="354.7188"/><line style="stroke:#333333;stroke-width:2.0;" x1="880" x2="880" y1="349.7188" y2="354.7188"/><line style="stroke:#333333;stroke-width:2.0;" x1="930" x2="930" y1="349.7188" y2="354.7188"/><line style="stroke:#333333;stroke-width:2.0;" x1="980" x2="980" y1="349.7188" y2="354.7188"/><line style="stroke:#333333;stroke-width:2.0;" x1="230" x2="980" y1="349.7188" y2="349.7188"/><text fill="#333333" font-family="sans-serif" font-size="11" lengthAdjust="spacing" textLength="6" x="227" y="367.1377">0</text><text fill="#333333" font-family="sans-serif" font-size="11" lengthAdjust="spacing" textLength="6" x="277" y="367.1377">5</text><text fill="#333333" font-family="sans-serif" font-size="11" lengthAdjust="spacing" textLength="12" x="324" y="367.1377">10</text><text fill="#333333" font-family="sans-serif" font-size="11" lengthAdjust="spacing" textLength="12" x="524" y="367.1377">30</text><text fill="#333333" font-family="sans-serif" font-size="11" lengthAdjust="spacing" textLength="12" x="574" y="367.1377">35</text><text fill="#333333" font-family="sans-serif" font-size="11" lengthAdjust="spacing" textLength="12" x="624" y="367.1377">40</text><text fill="#333333" font-family="sans-serif" font-size="11" lengthAdjust="spacing" textLength="12" x="674" y="367.1377">45</text><text fill="#333333" font-family="sans-serif" font-size="11" lengthAdjust="spacing" textLength="12" x="874" y="367.1377">65</text><text fill="#333333" font-family="sans-serif" font-size="11" lengthAdjust="spacing" textLength="12" x="924" y="367.1377">70</text><line style="stroke:#333333;stroke-width:2.0;stroke-dasharray:4.0,4.0;" x1="230" x2="230" y1="10" y2="349.7188"/><line style="stroke:#333333;stroke-width:2.0;stroke-dasharray:4.0,4.0;" x1="280" x2="280" y1="10" y2="349.7188"/><text fill="#000000" font-family="sans-serif" font-size="12" lengthAdjust="spacing" textLength="69" x="233" y="24.457">DEBOUNCE</text><line style="stroke:#333333;stroke-width:2.0;stroke-dasharray:4.0,4.0;" x1="580" x2="580" y1="10" y2="349.7188"/><line style="stroke:#333333;stroke-width:2.0;stroke-dasharray:4.0,4.0;" x1="630" x2="630" y1="10" y2="349.7188"/><text fill="#000000" font-family="sans-serif" font-size="12" lengthAdjust="spacing" textLength="69" x="583" y="24.457">DEBOUNCE</text><!--SRC=[NL5TQuD047pVNx7ajIdO9hPGGZaJhwbWDQWfz4aIaIY8bjpPK2J_lUwTNys3i7ipipkpdgjZBIJElhDVaIU70e-rb5KvmuD0SSbbai6venJLwPQXIqYgCib5YclLXl8WqrwL_gIb13q9Su55TG6jeYxWBhT2RiD4IU-ExN9GKkeyt-C0MNxAYlQJQA2iqCGNjFdQttiRFi4M9e5BOue2wv8ODArfBSn9S0MJUYfXeSg6wdcBNs5fz6w1TIcPYQlxLsHtZpIzSNrl6tS1OfkxrbTSYokmLjdHo68JEHyyzlVHXA9sxG8UKdAzQ3W4C7qnpTc7x_1W33TOg58jLf1shQ1_OsBhBU91h8Yq7vOZyKcLlIju7gS3c_w_CQqvfAMbjpciJUHyzjRw_JlksOwtxLmD9-YVjGVra_y0]--></g></svg>