<?xml version="1.0" encoding="us-ascii" standalone="no"?><svg xmlns="http://www.w3.org/2000/svg" xmlns:xlink="http://www.w3.org/1999/xlink" contentStyleType="text/css" height="223px" preserveAspectRatio="none" style="width:746px;height:223px;background:#FFFFFF;" version="1.1" viewBox="0 0 746 223" width="746px" zoomAndPan="magnify"><defs/><g><!--class UIController--><g id="elem_UIController"><rect codeLine="2" fill="#F1F1F1" height="48" id="UIController" rx="2.5" ry="2.5" style="stroke:#181818;stroke-width:0.5;" width="108" x="7" y="168"/><ellipse cx="22" cy="184" fill="#A9DCDF" rx="11" ry="11" style="stroke:#181818;stroke-width:1.0;"/><path d="M24.1875,185.7656 L20.0469,185.7656 L19.625,186.7969 L20.0469,186.7969 Q20.6563,186.7969 20.9219,187.0313 Q21.1875,187.2656 21.1875,187.6563 Q21.1875,188.0313 20.9219,188.2656 Q20.6563,188.5 20.0469,188.5 L17.75,188.5 Q17.1406,188.5 16.8906,188.2656 Q16.625,188.0313 16.625,187.6406 Q16.625,187.2656 16.9063,187.0313 Q17.1719,186.7813 17.7969,186.7969 L20.4688,180.1406 L19.3594,180.1406 Q18.75,180.1406 18.4844,179.9063 Q18.2188,179.6719 18.2188,179.2813 Q18.2188,178.9063 18.4844,178.6719 Q18.75,178.4375 19.3594,178.4375 L23.0313,178.4375 L26.4219,186.7969 Q27.0156,186.7969 27.2031,186.9375 Q27.5938,187.2031 27.5938,187.6563 Q27.5938,188.0313 27.3281,188.2656 Q27.0781,188.5 26.4688,188.5 L24.1719,188.5 Q23.5625,188.5 23.2969,188.2656 Q23.0313,188.0313 23.0313,187.6406 Q23.0313,187.2656 23.2969,187.0313 Q23.5625,186.7969 24.1719,186.7969 L24.5938,186.7969 L24.1875,185.7656 Z M23.4688,184.0625 L22.1094,180.6875 L20.7344,184.0625 L23.4688,184.0625 Z " fill="#000000"/><text fill="#000000" font-family="sans-serif" font-size="14" font-style="italic" lengthAdjust="spacing" textLength="76" x="36" y="189.7285">UIController</text><line style="stroke:#181818;stroke-width:0.5;" x1="8" x2="114" y1="200" y2="200"/><line style="stroke:#181818;stroke-width:0.5;" x1="8" x2="114" y1="208" y2="208"/></g><!--class Model--><g id="elem_Model"><rect codeLine="4" fill="#F1F1F1" height="83.2188" id="Model" rx="2.5" ry="2.5" style="stroke:#181818;stroke-width:0.5;" width="127" x="308.5" y="7"/><ellipse cx="348.7" cy="23" fill="#A9DCDF" rx="11" ry="11" style="stroke:#181818;stroke-width:1.0;"/><path d="M350.8875,24.7656 L346.7469,24.7656 L346.325,25.7969 L346.7469,25.7969 Q347.3563,25.7969 347.6219,26.0313 Q347.8875,26.2656 347.8875,26.6563 Q347.8875,27.0313 347.6219,27.2656 Q347.3563,27.5 346.7469,27.5 L344.45,27.5 Q343.8406,27.5 343.5906,27.2656 Q343.325,27.0313 343.325,26.6406 Q343.325,26.2656 343.6063,26.0313 Q343.8719,25.7813 344.4969,25.7969 L347.1688,19.1406 L346.0594,19.1406 Q345.45,19.1406 345.1844,18.9063 Q344.9188,18.6719 344.9188,18.2813 Q344.9188,17.9063 345.1844,17.6719 Q345.45,17.4375 346.0594,17.4375 L349.7313,17.4375 L353.1219,25.7969 Q353.7156,25.7969 353.9031,25.9375 Q354.2938,26.2031 354.2938,26.6563 Q354.2938,27.0313 354.0281,27.2656 Q353.7781,27.5 353.1688,27.5 L350.8719,27.5 Q350.2625,27.5 349.9969,27.2656 Q349.7313,27.0313 349.7313,26.6406 Q349.7313,26.2656 349.9969,26.0313 Q350.2625,25.7969 350.8719,25.7969 L351.2938,25.7969 L350.8875,24.7656 Z M350.1688,23.0625 L348.8094,19.6875 L347.4344,23.0625 L350.1688,23.0625 Z " fill="#000000"/><text fill="#000000" font-family="sans-serif" font-size="14" font-style="italic" lengthAdjust="spacing" textLength="39" x="368.3" y="28.7285">Model</text><line style="stroke:#181818;stroke-width:0.5;" x1="309.5" x2="434.5" y1="39" y2="39"/><line style="stroke:#181818;stroke-width:0.5;" x1="309.5" x2="434.5" y1="47" y2="47"/><text fill="#000000" font-family="sans-serif" font-size="14" lengthAdjust="spacing" textLength="96" x="314.5" y="65.5332">has_changed()</text><text fill="#000000" font-family="sans-serif" font-size="14" lengthAdjust="spacing" textLength="115" x="314.5" y="83.1426">set_change_flag()</text></g><!--class Widget--><g id="elem_Widget"><rect codeLine="8" fill="#F1F1F1" height="48" id="Widget" rx="2.5" ry="2.5" style="stroke:#181818;stroke-width:0.5;" width="77" x="611.5" y="24.5"/><ellipse cx="626.5" cy="40.5" fill="#A9DCDF" rx="11" ry="11" style="stroke:#181818;stroke-width:1.0;"/><path d="M628.6875,42.2656 L624.5469,42.2656 L624.125,43.2969 L624.5469,43.2969 Q625.1563,43.2969 625.4219,43.5313 Q625.6875,43.7656 625.6875,44.1563 Q625.6875,44.5313 625.4219,44.7656 Q625.1563,45 624.5469,45 L622.25,45 Q621.6406,45 621.3906,44.7656 Q621.125,44.5313 621.125,44.1406 Q621.125,43.7656 621.4063,43.5313 Q621.6719,43.2813 622.2969,43.2969 L624.9688,36.6406 L623.8594,36.6406 Q623.25,36.6406 622.9844,36.4063 Q622.7188,36.1719 622.7188,35.7813 Q622.7188,35.4063 622.9844,35.1719 Q623.25,34.9375 623.8594,34.9375 L627.5313,34.9375 L630.9219,43.2969 Q631.5156,43.2969 631.7031,43.4375 Q632.0938,43.7031 632.0938,44.1563 Q632.0938,44.5313 631.8281,44.7656 Q631.5781,45 630.9688,45 L628.6719,45 Q628.0625,45 627.7969,44.7656 Q627.5313,44.5313 627.5313,44.1406 Q627.5313,43.7656 627.7969,43.5313 Q628.0625,43.2969 628.6719,43.2969 L629.0938,43.2969 L628.6875,42.2656 Z M627.9688,40.5625 L626.6094,37.1875 L625.2344,40.5625 L627.9688,40.5625 Z " fill="#000000"/><text fill="#000000" font-family="sans-serif" font-size="14" font-style="italic" lengthAdjust="spacing" textLength="45" x="640.5" y="46.2285">Widget</text><line style="stroke:#181818;stroke-width:0.5;" x1="612.5" x2="687.5" y1="56.5" y2="56.5"/><line style="stroke:#181818;stroke-width:0.5;" x1="612.5" x2="687.5" y1="64.5" y2="64.5"/></g><!--class UIControlledModel--><g id="elem_UIControlledModel"><rect codeLine="10" fill="#F1F1F1" height="48" id="UIControlledModel" rx="2.5" ry="2.5" style="stroke:#181818;stroke-width:0.5;" width="150" x="297" y="168"/><ellipse cx="312" cy="184" fill="#A9DCDF" rx="11" ry="11" style="stroke:#181818;stroke-width:1.0;"/><path d="M314.1875,185.7656 L310.0469,185.7656 L309.625,186.7969 L310.0469,186.7969 Q310.6563,186.7969 310.9219,187.0313 Q311.1875,187.2656 311.1875,187.6563 Q311.1875,188.0313 310.9219,188.2656 Q310.6563,188.5 310.0469,188.5 L307.75,188.5 Q307.1406,188.5 306.8906,188.2656 Q306.625,188.0313 306.625,187.6406 Q306.625,187.2656 306.9063,187.0313 Q307.1719,186.7813 307.7969,186.7969 L310.4688,180.1406 L309.3594,180.1406 Q308.75,180.1406 308.4844,179.9063 Q308.2188,179.6719 308.2188,179.2813 Q308.2188,178.9063 308.4844,178.6719 Q308.75,178.4375 309.3594,178.4375 L313.0313,178.4375 L316.4219,186.7969 Q317.0156,186.7969 317.2031,186.9375 Q317.5938,187.2031 317.5938,187.6563 Q317.5938,188.0313 317.3281,188.2656 Q317.0781,188.5 316.4688,188.5 L314.1719,188.5 Q313.5625,188.5 313.2969,188.2656 Q313.0313,188.0313 313.0313,187.6406 Q313.0313,187.2656 313.2969,187.0313 Q313.5625,186.7969 314.1719,186.7969 L314.5938,186.7969 L314.1875,185.7656 Z M313.4688,184.0625 L312.1094,180.6875 L310.7344,184.0625 L313.4688,184.0625 Z " fill="#000000"/><text fill="#000000" font-family="sans-serif" font-size="14" font-style="italic" lengthAdjust="spacing" textLength="118" x="326" y="189.7285">UIControlledModel</text><line style="stroke:#181818;stroke-width:0.5;" x1="298" x2="446" y1="200" y2="200"/><line style="stroke:#181818;stroke-width:0.5;" x1="298" x2="446" y1="208" y2="208"/></g><!--class DisplayDevice--><g id="elem_DisplayDevice"><rect codeLine="12" fill="#F1F1F1" height="48" id="DisplayDevice" rx="2.5" ry="2.5" style="stroke:#181818;stroke-width:0.5;" width="120" x="590" y="168"/><ellipse cx="605" cy="184" fill="#A9DCDF" rx="11" ry="11" style="stroke:#181818;stroke-width:1.0;"/><path d="M607.1875,185.7656 L603.0469,185.7656 L602.625,186.7969 L603.0469,186.7969 Q603.6563,186.7969 603.9219,187.0313 Q604.1875,187.2656 604.1875,187.6563 Q604.1875,188.0313 603.9219,188.2656 Q603.6563,188.5 603.0469,188.5 L600.75,188.5 Q600.1406,188.5 599.8906,188.2656 Q599.625,188.0313 599.625,187.6406 Q599.625,187.2656 599.9063,187.0313 Q600.1719,186.7813 600.7969,186.7969 L603.4688,180.1406 L602.3594,180.1406 Q601.75,180.1406 601.4844,179.9063 Q601.2188,179.6719 601.2188,179.2813 Q601.2188,178.9063 601.4844,178.6719 Q601.75,178.4375 602.3594,178.4375 L606.0313,178.4375 L609.4219,186.7969 Q610.0156,186.7969 610.2031,186.9375 Q610.5938,187.2031 610.5938,187.6563 Q610.5938,188.0313 610.3281,188.2656 Q610.0781,188.5 609.4688,188.5 L607.1719,188.5 Q606.5625,188.5 606.2969,188.2656 Q606.0313,188.0313 606.0313,187.6406 Q606.0313,187.2656 606.2969,187.0313 Q606.5625,186.7969 607.1719,186.7969 L607.5938,186.7969 L607.1875,185.7656 Z M606.4688,184.0625 L605.1094,180.6875 L603.7344,184.0625 L606.4688,184.0625 Z " fill="#000000"/><text fill="#000000" font-family="sans-serif" font-size="14" font-style="italic" lengthAdjust="spacing" textLength="88" x="619" y="189.7285">DisplayDevice</text><line style="stroke:#181818;stroke-width:0.5;" x1="591" x2="709" y1="200" y2="200"/><line style="stroke:#181818;stroke-width:0.5;" x1="591" x2="709" y1="208" y2="208"/></g><!--reverse link Model to Widget--><g id="link_Model_Widget"><path codeLine="14" d="M447.4911,66.2115 C459.4711,68.5315 460.18,68.27 472,69.5 C517.53,74.23 529.65,75.73 575,69.5 C587.06,67.84 599.91,64.76 611.5,61.45 " fill="none" id="Model-backto-Widget" style="stroke:#181818;stroke-width:1.0;"/><polygon fill="none" points="435.71,63.93,440.8401,68.9978,447.4911,66.2115,442.3611,61.1437,435.71,63.93" style="stroke:#181818;stroke-width:1.0;"/><text fill="#000000" font-family="sans-serif" font-size="13" lengthAdjust="spacing" textLength="101" x="473" y="65.9951">attached_widgets</text><text fill="#000000" font-family="sans-serif" font-size="13" lengthAdjust="spacing" textLength="20" x="583.4672" y="59.7941">0..*</text></g><!--reverse link Widget to Model--><g id="link_Widget_Model"><path codeLine="18" d="M599.37,48.5 C553.96,48.5 489.96,48.5 435.78,48.5 " fill="none" id="Widget-backto-Model" style="stroke:#181818;stroke-width:1.0;"/><polygon fill="none" points="611.37,48.5,605.37,44.5,599.37,48.5,605.37,52.5,611.37,48.5" style="stroke:#181818;stroke-width:1.0;"/><text fill="#000000" font-family="sans-serif" font-size="13" lengthAdjust="spacing" textLength="139" x="454" y="41.9951">actual_displayed_model</text><text fill="#000000" font-family="sans-serif" font-size="13" lengthAdjust="spacing" textLength="7" x="443.5592" y="45.0778">1</text></g><!--reverse link Model to UIControlledModel--><g id="link_Model_UIControlledModel"><path codeLine="15" d="M372,108.05 C372,133.2 372,146.62 372,167.67 " fill="none" id="Model-backto-UIControlledModel" style="stroke:#181818;stroke-width:1.0;"/><polygon fill="none" points="372,90.05,366,108.05,378,108.05,372,90.05" style="stroke:#181818;stroke-width:1.0;"/></g><!--reverse link UIController to UIControlledModel--><g id="link_UIController_UIControlledModel"><path codeLine="16" d="M127.17,192 C177.47,192 240.81,192 296.9,192 " fill="none" id="UIController-backto-UIControlledModel" style="stroke:#181818;stroke-width:1.0;"/><polygon fill="none" points="115.17,192,121.17,196,127.17,192,121.17,188,115.17,192" style="stroke:#181818;stroke-width:1.0;"/><text fill="#000000" font-family="sans-serif" font-size="13" lengthAdjust="spacing" textLength="145" x="133.5" y="185.4951">current_controlled_model</text><text fill="#000000" font-family="sans-serif" font-size="13" lengthAdjust="spacing" textLength="7" x="281.7944" y="188.6882">1</text></g><!--reverse link Widget to DisplayDevice--><g id="link_Widget_DisplayDevice"><path codeLine="17" d="M650,84.55 C650,110.86 650,141.65 650,167.96 " fill="none" id="Widget-backto-DisplayDevice" style="stroke:#181818;stroke-width:1.0;"/><polygon fill="#181818" points="650,72.55,646,78.55,650,84.55,654,78.55,650,72.55" style="stroke:#181818;stroke-width:1.0;"/><text fill="#000000" font-family="sans-serif" font-size="13" lengthAdjust="spacing" textLength="87" x="651" y="134.4951">display_screen</text><text fill="#000000" font-family="sans-serif" font-size="13" lengthAdjust="spacing" textLength="7" x="642.1031" y="157.2899">1</text></g><!--SRC=[RKyz3u8m5DpxArwOb0IYAt7JnS7HE3RFzWaabPgsQ0pwtsrAHGXswzsz-y2pTGQ50w7GMZZkjxfnHYj5fcDlXbFwe2Kfw1ZuLw7beiAc9BbO1iIIYmY_A2mZEZCvrR8antxmA5I6X16tg-rDuND7zreGOtq1dK6oolCqwQsW07GEHKMIFm9Yet3poh8_zkELmMoTp4HGYDOOQloaWU3NS1vJqonSJXhwAhB_SoiCKVCLwruShS5FQr7ng1sSFm00]--></g></svg>