<?xml version="1.0" encoding="us-ascii" standalone="no"?><svg xmlns="http://www.w3.org/2000/svg" xmlns:xlink="http://www.w3.org/1999/xlink" contentStyleType="text/css" height="1305px" preserveAspectRatio="none" style="width:756px;height:1305px;background:#FFFFFF;" version="1.1" viewBox="0 0 756 1305" width="756px" zoomAndPan="magnify"><defs/><g><text fill="#000000" font-family="sans-serif" font-size="14" font-weight="bold" lengthAdjust="spacing" textLength="192" x="283.5" y="29.5332">method : draw with blinking</text><rect fill="#FFFFFF" height="100.0547" style="stroke:#181818;stroke-width:1.0;" width="10" x="199" y="197.625"/><rect fill="#FFFFFF" height="49.3516" style="stroke:#181818;stroke-width:1.0;" width="10" x="199" y="486.7891"/><rect fill="#FFFFFF" height="49.3516" style="stroke:#181818;stroke-width:1.0;" width="10" x="199" y="698.8984"/><rect fill="#FFFFFF" height="49.3516" style="stroke:#181818;stroke-width:1.0;" width="10" x="199" y="825.9531"/><rect fill="#FFFFFF" height="28" style="stroke:#181818;stroke-width:1.0;" width="10" x="199" y="1157.1172"/><rect fill="#FFFFFF" height="64.7031" style="stroke:#181818;stroke-width:1.0;" width="10" x="401" y="232.9766"/><rect fill="#FFFFFF" height="30.3516" style="stroke:#181818;stroke-width:1.0;" width="10" x="401" y="360.3828"/><rect fill="#FFFFFF" height="48.3516" style="stroke:#181818;stroke-width:1.0;" width="10" x="401" y="938.0078"/><rect fill="#FFFFFF" height="14" style="stroke:#181818;stroke-width:1.0;" width="10" x="576" y="522.1406"/><rect fill="#FFFFFF" height="14" style="stroke:#181818;stroke-width:1.0;" width="10" x="576" y="734.25"/><rect fill="#FFFFFF" height="14" style="stroke:#181818;stroke-width:1.0;" width="10" x="576" y="861.3047"/><rect fill="#FFFFFF" height="30.3516" style="stroke:#181818;stroke-width:1.0;" width="10" x="696.5" y="1056.0625"/><rect fill="#FFFFFF" height="14" style="stroke:#181818;stroke-width:1.0;" width="10" x="696.5" y="1222.4688"/><rect fill="none" height="1127.8984" style="stroke:#000000;stroke-width:1.5;" width="740" x="10" y="123.5703"/><rect fill="none" height="156.7578" style="stroke:#000000;stroke-width:1.5;" width="479" x="20" y="148.9219"/><rect fill="none" height="79.0547" style="stroke:#000000;stroke-width:1.5;" width="345" x="154" y="319.6797"/><rect fill="none" height="588.625" style="stroke:#000000;stroke-width:1.5;" width="623" x="70" y="412.7344"/><rect fill="none" height="106.0547" style="stroke:#000000;stroke-width:1.5;" width="519" x="154" y="438.0859"/><rect fill="none" height="52.7031" style="stroke:#000000;stroke-width:1.5;" width="248" x="80" y="558.1406"/><rect fill="none" height="138.4063" style="stroke:#000000;stroke-width:1.5;" width="539" x="144" y="624.8438"/><rect fill="none" height="106.0547" style="stroke:#000000;stroke-width:1.5;" width="519" x="154" y="650.1953"/><rect fill="none" height="106.0547" style="stroke:#000000;stroke-width:1.5;" width="519" x="154" y="777.25"/><rect fill="none" height="97.0547" style="stroke:#000000;stroke-width:1.5;" width="345" x="154" y="897.3047"/><rect fill="none" height="79.0547" style="stroke:#000000;stroke-width:1.5;" width="586" x="154" y="1015.3594"/><rect fill="none" height="136.0547" style="stroke:#000000;stroke-width:1.5;" width="586" x="154" y="1108.4141"/><line style="stroke:#181818;stroke-width:0.5;stroke-dasharray:5.0,5.0;" x1="204" x2="204" y1="76.2188" y2="1298.8203"/><line style="stroke:#181818;stroke-width:0.5;stroke-dasharray:5.0,5.0;" x1="406" x2="406" y1="76.2188" y2="1298.8203"/><line style="stroke:#181818;stroke-width:0.5;stroke-dasharray:5.0,5.0;" x1="581" x2="581" y1="76.2188" y2="1298.8203"/><line style="stroke:#181818;stroke-width:0.5;stroke-dasharray:5.0,5.0;" x1="701" x2="701" y1="76.2188" y2="1298.8203"/><rect fill="#E2E2F0" height="31.6094" rx="2.5" ry="2.5" style="stroke:#181818;stroke-width:0.5;" width="80" x="164" y="43.6094"/><text fill="#000000" font-family="sans-serif" font-size="14" lengthAdjust="spacing" textLength="66" x="171" y="65.1426">my_widget</text><rect fill="#E2E2F0" height="31.6094" rx="2.5" ry="2.5" style="stroke:#181818;stroke-width:0.5;" width="166" x="323" y="43.6094"/><text fill="#000000" font-family="sans-serif" font-size="14" lengthAdjust="spacing" textLength="152" x="330" y="65.1426">actual_displayed_model</text><rect fill="#E2E2F0" height="31.6094" rx="2.5" ry="2.5" style="stroke:#181818;stroke-width:0.5;" width="164" x="499" y="43.6094"/><text fill="#000000" font-family="sans-serif" font-size="14" lengthAdjust="spacing" textLength="150" x="506" y="65.1426">graphic_display_screen</text><rect fill="#E2E2F0" height="31.6094" rx="2.5" ry="2.5" style="stroke:#181818;stroke-width:0.5;" width="57" x="673" y="43.6094"/><text fill="#000000" font-family="sans-serif" font-size="14" lengthAdjust="spacing" textLength="43" x="680" y="65.1426">Blinker</text><rect fill="#FFFFFF" height="100.0547" style="stroke:#181818;stroke-width:1.0;" width="10" x="199" y="197.625"/><rect fill="#FFFFFF" height="49.3516" style="stroke:#181818;stroke-width:1.0;" width="10" x="199" y="486.7891"/><rect fill="#FFFFFF" height="49.3516" style="stroke:#181818;stroke-width:1.0;" width="10" x="199" y="698.8984"/><rect fill="#FFFFFF" height="49.3516" style="stroke:#181818;stroke-width:1.0;" width="10" x="199" y="825.9531"/><rect fill="#FFFFFF" height="28" style="stroke:#181818;stroke-width:1.0;" width="10" x="199" y="1157.1172"/><rect fill="#FFFFFF" height="64.7031" style="stroke:#181818;stroke-width:1.0;" width="10" x="401" y="232.9766"/><rect fill="#FFFFFF" height="30.3516" style="stroke:#181818;stroke-width:1.0;" width="10" x="401" y="360.3828"/><rect fill="#FFFFFF" height="48.3516" style="stroke:#181818;stroke-width:1.0;" width="10" x="401" y="938.0078"/><rect fill="#FFFFFF" height="14" style="stroke:#181818;stroke-width:1.0;" width="10" x="576" y="522.1406"/><rect fill="#FFFFFF" height="14" style="stroke:#181818;stroke-width:1.0;" width="10" x="576" y="734.25"/><rect fill="#FFFFFF" height="14" style="stroke:#181818;stroke-width:1.0;" width="10" x="576" y="861.3047"/><rect fill="#FFFFFF" height="30.3516" style="stroke:#181818;stroke-width:1.0;" width="10" x="696.5" y="1056.0625"/><rect fill="#FFFFFF" height="14" style="stroke:#181818;stroke-width:1.0;" width="10" x="696.5" y="1222.4688"/><polygon fill="#181818" points="192,104.5703,202,108.5703,192,112.5703" style="stroke:#181818;stroke-width:1.0;"/><line style="stroke:#181818;stroke-width:1.0;" x1="0" x2="198" y1="108.5703" y2="108.5703"/><text fill="#000000" font-family="sans-serif" font-size="13" lengthAdjust="spacing" textLength="35" x="84.5" y="103.7139">draw()</text><path d="M10,123.5703 L83,123.5703 L83,131.9219 L73,141.9219 L10,141.9219 L10,123.5703 " fill="#EEEEEE" style="stroke:#000000;stroke-width:1.5;"/><rect fill="none" height="1127.8984" style="stroke:#000000;stroke-width:1.5;" width="740" x="10" y="123.5703"/><text fill="#000000" font-family="sans-serif" font-size="13" font-weight="bold" lengthAdjust="spacing" textLength="28" x="25" y="138.0654">loop</text><text fill="#000000" font-family="sans-serif" font-size="11" font-weight="bold" lengthAdjust="spacing" textLength="94" x="98" y="136.9893">[for each widget]</text><path d="M20,148.9219 L268,148.9219 L268,157.2734 L258,167.2734 L20,167.2734 L20,148.9219 " fill="#EEEEEE" style="stroke:#000000;stroke-width:1.5;"/><rect fill="none" height="156.7578" style="stroke:#000000;stroke-width:1.5;" width="479" x="20" y="148.9219"/><text fill="#000000" font-family="sans-serif" font-size="13" font-weight="bold" lengthAdjust="spacing" textLength="203" x="35" y="163.417">get value of interest from model</text><line style="stroke:#181818;stroke-width:1.0;" x1="204" x2="251" y1="184.625" y2="184.625"/><line style="stroke:#181818;stroke-width:1.0;" x1="251" x2="251" y1="184.625" y2="197.625"/><line style="stroke:#181818;stroke-width:1.0;" x1="210" x2="251" y1="197.625" y2="197.625"/><polygon fill="#181818" points="220,193.625,210,197.625,220,201.625" style="stroke:#181818;stroke-width:1.0;"/><text fill="#000000" font-family="sans-serif" font-size="13" lengthAdjust="spacing" textLength="129" x="216" y="179.7686">get_value_of_interest()</text><polygon fill="#181818" points="389,228.9766,399,232.9766,389,236.9766" style="stroke:#181818;stroke-width:1.0;"/><line style="stroke:#181818;stroke-width:1.0;" x1="209" x2="395" y1="232.9766" y2="232.9766"/><text fill="#000000" font-family="sans-serif" font-size="13" lengthAdjust="spacing" textLength="173" x="218.5" y="228.1201">read values and process them</text><rect fill="#FEFFDD" height="24" style="stroke:#181818;stroke-width:0.5;" width="348" x="30" y="245.9766"/><text fill="#000000" font-family="sans-serif" font-size="13" lengthAdjust="spacing" textLength="340" x="34" y="263.4717">specific to the implemented widget and the attached model</text><polygon fill="#181818" points="215,293.6797,205,297.6797,215,301.6797" style="stroke:#181818;stroke-width:1.0;"/><line style="stroke:#181818;stroke-width:1.0;" x1="209" x2="405" y1="297.6797" y2="297.6797"/><text fill="#000000" font-family="sans-serif" font-size="13" lengthAdjust="spacing" textLength="36" x="287" y="292.8232">values</text><path d="M154,319.6797 L377,319.6797 L377,328.0313 L367,338.0313 L154,338.0313 L154,319.6797 " fill="#EEEEEE" style="stroke:#000000;stroke-width:1.5;"/><rect fill="none" height="79.0547" style="stroke:#000000;stroke-width:1.5;" width="345" x="154" y="319.6797"/><text fill="#000000" font-family="sans-serif" font-size="13" font-weight="bold" lengthAdjust="spacing" textLength="178" x="169" y="334.1748">check if model has changed</text><polygon fill="#181818" points="389,356.3828,399,360.3828,389,364.3828" style="stroke:#181818;stroke-width:1.0;"/><line style="stroke:#181818;stroke-width:1.0;" x1="204" x2="395" y1="360.3828" y2="360.3828"/><text fill="#000000" font-family="sans-serif" font-size="13" lengthAdjust="spacing" textLength="85" x="260" y="355.5264">has_changed()</text><polygon fill="#181818" points="215,386.7344,205,390.7344,215,394.7344" style="stroke:#181818;stroke-width:1.0;"/><line style="stroke:#181818;stroke-width:1.0;" x1="209" x2="405" y1="390.7344" y2="390.7344"/><text fill="#000000" font-family="sans-serif" font-size="13" lengthAdjust="spacing" textLength="69" x="270.5" y="385.8779">change_flag</text><path d="M70,412.7344 L131,412.7344 L131,421.0859 L121,431.0859 L70,431.0859 L70,412.7344 " fill="#EEEEEE" style="stroke:#000000;stroke-width:1.5;"/><rect fill="none" height="588.625" style="stroke:#000000;stroke-width:1.5;" width="623" x="70" y="412.7344"/><text fill="#000000" font-family="sans-serif" font-size="13" font-weight="bold" lengthAdjust="spacing" textLength="16" x="85" y="427.2295">alt</text><text fill="#000000" font-family="sans-serif" font-size="11" font-weight="bold" lengthAdjust="spacing" textLength="113" x="146" y="426.1533">[change_flag is true]</text><path d="M154,438.0859 L308,438.0859 L308,446.4375 L298,456.4375 L154,456.4375 L154,438.0859 " fill="#EEEEEE" style="stroke:#000000;stroke-width:1.5;"/><rect fill="none" height="106.0547" style="stroke:#000000;stroke-width:1.5;" width="519" x="154" y="438.0859"/><text fill="#000000" font-family="sans-serif" font-size="13" font-weight="bold" lengthAdjust="spacing" textLength="109" x="169" y="452.5811">clear pixel buffer</text><line style="stroke:#181818;stroke-width:1.0;" x1="204" x2="251" y1="473.7891" y2="473.7891"/><line style="stroke:#181818;stroke-width:1.0;" x1="251" x2="251" y1="473.7891" y2="486.7891"/><line style="stroke:#181818;stroke-width:1.0;" x1="210" x2="251" y1="486.7891" y2="486.7891"/><polygon fill="#181818" points="220,482.7891,210,486.7891,220,490.7891" style="stroke:#181818;stroke-width:1.0;"/><text fill="#000000" font-family="sans-serif" font-size="13" lengthAdjust="spacing" textLength="108" x="216" y="468.9326">clear_pixel_buffer()</text><polygon fill="#181818" points="564,518.1406,574,522.1406,564,526.1406" style="stroke:#181818;stroke-width:1.0;"/><line style="stroke:#181818;stroke-width:1.0;" x1="209" x2="570" y1="522.1406" y2="522.1406"/><text fill="#000000" font-family="sans-serif" font-size="13" lengthAdjust="spacing" textLength="183" x="301" y="517.2842">clear_pixel_buffer(&amp;pixel_frame)</text><polygon fill="#181818" points="215,532.1406,205,536.1406,215,540.1406" style="stroke:#181818;stroke-width:1.0;"/><line style="stroke:#181818;stroke-width:1.0;stroke-dasharray:2.0,2.0;" x1="209" x2="580" y1="536.1406" y2="536.1406"/><path d="M80,558.1406 L224,558.1406 L224,566.4922 L214,576.4922 L80,576.4922 L80,558.1406 " fill="#EEEEEE" style="stroke:#000000;stroke-width:1.5;"/><rect fill="none" height="52.7031" style="stroke:#000000;stroke-width:1.5;" width="248" x="80" y="558.1406"/><text fill="#000000" font-family="sans-serif" font-size="13" font-weight="bold" lengthAdjust="spacing" textLength="99" x="95" y="572.6357">widget drawing</text><rect fill="#FEFFDD" height="24" style="stroke:#181818;stroke-width:0.5;" width="228" x="90" y="581.4922"/><text fill="#000000" font-family="sans-serif" font-size="13" lengthAdjust="spacing" textLength="220" x="94" y="598.9873">specific to the effective widget drawing</text><path d="M144,624.8438 L306,624.8438 L306,633.1953 L296,643.1953 L144,643.1953 L144,624.8438 " fill="#EEEEEE" style="stroke:#000000;stroke-width:1.5;"/><rect fill="none" height="138.4063" style="stroke:#000000;stroke-width:1.5;" width="539" x="144" y="624.8438"/><text fill="#000000" font-family="sans-serif" font-size="13" font-weight="bold" lengthAdjust="spacing" textLength="117" x="159" y="639.3389">draw border if any</text><path d="M154,650.1953 L215,650.1953 L215,658.5469 L205,668.5469 L154,668.5469 L154,650.1953 " fill="#EEEEEE" style="stroke:#000000;stroke-width:1.5;"/><rect fill="none" height="106.0547" style="stroke:#000000;stroke-width:1.5;" width="519" x="154" y="650.1953"/><text fill="#000000" font-family="sans-serif" font-size="13" font-weight="bold" lengthAdjust="spacing" textLength="16" x="169" y="664.6904">alt</text><text fill="#000000" font-family="sans-serif" font-size="11" font-weight="bold" lengthAdjust="spacing" textLength="161" x="230" y="663.6143">[widget_with_border == true]</text><line style="stroke:#181818;stroke-width:1.0;" x1="204" x2="251" y1="685.8984" y2="685.8984"/><line style="stroke:#181818;stroke-width:1.0;" x1="251" x2="251" y1="685.8984" y2="698.8984"/><line style="stroke:#181818;stroke-width:1.0;" x1="210" x2="251" y1="698.8984" y2="698.8984"/><polygon fill="#181818" points="220,694.8984,210,698.8984,220,702.8984" style="stroke:#181818;stroke-width:1.0;"/><text fill="#000000" font-family="sans-serif" font-size="13" lengthAdjust="spacing" textLength="132" x="216" y="681.042">rect(around the widget)</text><polygon fill="#181818" points="564,730.25,574,734.25,564,738.25" style="stroke:#181818;stroke-width:1.0;"/><line style="stroke:#181818;stroke-width:1.0;" x1="209" x2="570" y1="734.25" y2="734.25"/><text fill="#000000" font-family="sans-serif" font-size="13" lengthAdjust="spacing" textLength="53" x="366" y="729.3936">pixel(x,y)</text><polygon fill="#181818" points="215,744.25,205,748.25,215,752.25" style="stroke:#181818;stroke-width:1.0;"/><line style="stroke:#181818;stroke-width:1.0;stroke-dasharray:2.0,2.0;" x1="209" x2="580" y1="748.25" y2="748.25"/><path d="M154,777.25 L341,777.25 L341,785.6016 L331,795.6016 L154,795.6016 L154,777.25 " fill="#EEEEEE" style="stroke:#000000;stroke-width:1.5;"/><rect fill="none" height="106.0547" style="stroke:#000000;stroke-width:1.5;" width="519" x="154" y="777.25"/><text fill="#000000" font-family="sans-serif" font-size="13" font-weight="bold" lengthAdjust="spacing" textLength="142" x="169" y="791.7451">show widget to screen</text><line style="stroke:#181818;stroke-width:1.0;" x1="204" x2="251" y1="812.9531" y2="812.9531"/><line style="stroke:#181818;stroke-width:1.0;" x1="251" x2="251" y1="812.9531" y2="825.9531"/><line style="stroke:#181818;stroke-width:1.0;" x1="210" x2="251" y1="825.9531" y2="825.9531"/><polygon fill="#181818" points="220,821.9531,210,825.9531,220,829.9531" style="stroke:#181818;stroke-width:1.0;"/><text fill="#000000" font-family="sans-serif" font-size="13" lengthAdjust="spacing" textLength="38" x="216" y="808.0967">show()</text><polygon fill="#181818" points="564,857.3047,574,861.3047,564,865.3047" style="stroke:#181818;stroke-width:1.0;"/><line style="stroke:#181818;stroke-width:1.0;" x1="209" x2="570" y1="861.3047" y2="861.3047"/><text fill="#000000" font-family="sans-serif" font-size="13" lengthAdjust="spacing" textLength="226" x="279.5" y="856.4482">show(pixel_frame, anchor_x, anchor_y)</text><polygon fill="#181818" points="215,871.3047,205,875.3047,215,879.3047" style="stroke:#181818;stroke-width:1.0;"/><line style="stroke:#181818;stroke-width:1.0;stroke-dasharray:2.0,2.0;" x1="209" x2="580" y1="875.3047" y2="875.3047"/><path d="M154,897.3047 L293,897.3047 L293,905.6563 L283,915.6563 L154,915.6563 L154,897.3047 " fill="#EEEEEE" style="stroke:#000000;stroke-width:1.5;"/><rect fill="none" height="97.0547" style="stroke:#000000;stroke-width:1.5;" width="345" x="154" y="897.3047"/><text fill="#000000" font-family="sans-serif" font-size="13" font-weight="bold" lengthAdjust="spacing" textLength="94" x="169" y="911.7998">ack draw done</text><polygon fill="#181818" points="389,934.0078,399,938.0078,389,942.0078" style="stroke:#181818;stroke-width:1.0;"/><line style="stroke:#181818;stroke-width:1.0;" x1="204" x2="395" y1="938.0078" y2="938.0078"/><text fill="#000000" font-family="sans-serif" font-size="13" lengthAdjust="spacing" textLength="114" x="245.5" y="933.1514">ack_widget_drawn()</text><rect fill="#FEFFDD" height="24" style="stroke:#181818;stroke-width:0.5;" width="104" x="354" y="951.0078"/><text fill="#000000" font-family="sans-serif" font-size="13" lengthAdjust="spacing" textLength="96" x="358" y="968.5029">change_flag -= 1</text><polygon fill="#181818" points="215,982.3594,205,986.3594,215,990.3594" style="stroke:#181818;stroke-width:1.0;"/><line style="stroke:#181818;stroke-width:1.0;stroke-dasharray:2.0,2.0;" x1="209" x2="405" y1="986.3594" y2="986.3594"/><path d="M154,1015.3594 L410,1015.3594 L410,1023.7109 L400,1033.7109 L154,1033.7109 L154,1015.3594 " fill="#EEEEEE" style="stroke:#000000;stroke-width:1.5;"/><rect fill="none" height="79.0547" style="stroke:#000000;stroke-width:1.5;" width="586" x="154" y="1015.3594"/><text fill="#000000" font-family="sans-serif" font-size="13" font-weight="bold" lengthAdjust="spacing" textLength="211" x="169" y="1029.8545">check if blink phase has changed</text><polygon fill="#181818" points="684.5,1052.0625,694.5,1056.0625,684.5,1060.0625" style="stroke:#181818;stroke-width:1.0;"/><line style="stroke:#181818;stroke-width:1.0;" x1="204" x2="690.5" y1="1056.0625" y2="1056.0625"/><text fill="#000000" font-family="sans-serif" font-size="13" lengthAdjust="spacing" textLength="100" x="400.25" y="1051.2061">compute_phase()</text><polygon fill="#181818" points="215,1082.4141,205,1086.4141,215,1090.4141" style="stroke:#181818;stroke-width:1.0;"/><line style="stroke:#181818;stroke-width:1.0;" x1="209" x2="700.5" y1="1086.4141" y2="1086.4141"/><text fill="#000000" font-family="sans-serif" font-size="13" lengthAdjust="spacing" textLength="212" x="346.75" y="1081.5576">blink phase has changed = true|false</text><path d="M154,1108.4141 L215,1108.4141 L215,1116.7656 L205,1126.7656 L154,1126.7656 L154,1108.4141 " fill="#EEEEEE" style="stroke:#000000;stroke-width:1.5;"/><rect fill="none" height="136.0547" style="stroke:#000000;stroke-width:1.5;" width="586" x="154" y="1108.4141"/><text fill="#000000" font-family="sans-serif" font-size="13" font-weight="bold" lengthAdjust="spacing" textLength="16" x="169" y="1122.9092">alt</text><text fill="#000000" font-family="sans-serif" font-size="11" font-weight="bold" lengthAdjust="spacing" textLength="167" x="230" y="1121.833">[blink_phase_changed is true]</text><line style="stroke:#181818;stroke-width:1.0;" x1="209" x2="251" y1="1149.1172" y2="1149.1172"/><line style="stroke:#181818;stroke-width:1.0;" x1="251" x2="251" y1="1149.1172" y2="1162.1172"/><line style="stroke:#181818;stroke-width:1.0;" x1="210" x2="251" y1="1162.1172" y2="1162.1172"/><polygon fill="#181818" points="220,1158.1172,210,1162.1172,220,1166.1172" style="stroke:#181818;stroke-width:1.0;"/><text fill="#000000" font-family="sans-serif" font-size="13" lengthAdjust="spacing" textLength="121" x="216" y="1144.2607">make widget blinking</text><polygon fill="#181818" points="684.5,1218.4688,694.5,1222.4688,684.5,1226.4688" style="stroke:#181818;stroke-width:1.0;"/><line style="stroke:#181818;stroke-width:1.0;" x1="204" x2="690.5" y1="1222.4688" y2="1222.4688"/><text fill="#000000" font-family="sans-serif" font-size="13" lengthAdjust="spacing" textLength="178" x="361.25" y="1217.6123">clear_blinking_phase_change()</text><polygon fill="#181818" points="215,1232.4688,205,1236.4688,215,1240.4688" style="stroke:#181818;stroke-width:1.0;"/><line style="stroke:#181818;stroke-width:1.0;stroke-dasharray:2.0,2.0;" x1="209" x2="700.5" y1="1236.4688" y2="1236.4688"/><polygon fill="#181818" points="11,1276.8203,1,1280.8203,11,1284.8203" style="stroke:#181818;stroke-width:1.0;"/><line style="stroke:#181818;stroke-width:1.0;" x1="5" x2="203" y1="1280.8203" y2="1280.8203"/><text fill="#000000" font-family="sans-serif" font-size="13" lengthAdjust="spacing" textLength="33" x="85.5" y="1275.9639">return</text><!--SRC=[bLN1ZjiW4Btp5NEg4ktwq6lKH6hlU-fn3uYOiOqMWmiuYQL-V0UmlNQwxgOvM8cPztZpc4U22XgXnT1O2GUGJbpXga83PwtCcp8ry_JiX1Cj-31GhGzEbQ5lzMBb9_xgqPJuWjwB6hzhLPiMJO2I7kWOUorEq0xygcIDOTndjsT07wQjxQ2o3b2K3UGIncfd-mvYzKNe7i5Me28N-W2LiosqLg9cCsbnUkT_UZf494z8RYi-8MbBGTg5vbBvJei19KyyyAs0DTwXa7bh3y98w9mjgJi83RRC6Hj8qWNTgYlVOQagLKAmiGvKsscCFg0S-qfKSKc4GDtI-zp6XggLQqLn60KnILO5TH4aObvdQEHa6p6NRw2gp0wDyFHAc1hbm_qJXe-ORTV-qfSHlDAYpdg43ikNeCX1r-CiLADmqAaRaPtxgg9PMH2UxZIbQfwgUQucQQlwseckKUKabFlI8Pejy9Vygw8HnZrp67fdFlLst2nES8p7WwE0j66anNlyWZc5xsoT92uwEs66P5y6y9XAFguUZzd5VtZbQBkT8DvnuFBIutObQtQtv-5pOr8BOm- -iTUfHMez4ovJkf8PZIB0VvnYAbySspFPL3RMyTlyRNZuA0M599akhK5OQzYO-AY1O6CXZsX3yXTJi05SPGEA8toTLDvRE8StNS7GKH9n5U6LpX-n25sQSDjsVK2U42jFATrZNGpf1Y_aeVfT2UtnFRsfEdDE5yASuitvetPRyJOF-_ndyk69VDHFviYPdT0h4Rlzqh_qU5rUOZ41SVaF]--></g></svg>